<?xml version="1.0" encoding="utf-8"?>
<!-- Generator: Adobe Illustrator 27.5.0, SVG Export Plug-In . SVG Version: 6.00 Build 0)  -->
<svg version="1.1" xmlns="http://www.w3.org/2000/svg" xmlns:xlink="http://www.w3.org/1999/xlink" x="0px" y="0px"
	 viewBox="0 0 750 500" style="enable-background:new 0 0 750 500;" xml:space="preserve">
<g id="BACKGROUND">
	<radialGradient id="SVGID_1_" cx="375" cy="250" r="1041.0477" gradientUnits="userSpaceOnUse">
		<stop  offset="0" style="stop-color:#00C5FD"/>
		<stop  offset="1" style="stop-color:#006FFC"/>
	</radialGradient>
	<rect style="fill:url(#SVGID_1_);" width="750" height="500"/>
</g>
<g id="OBJECTS">
	<g>
		<defs>
			<rect id="SVGID_00000093865611837596328300000011595357666775458738_" width="750" height="500"/>
		</defs>
		<clipPath id="SVGID_00000124141886059531082070000005036501804551730048_">
			<use xlink:href="#SVGID_00000093865611837596328300000011595357666775458738_"  style="overflow:visible;"/>
		</clipPath>
		<g style="clip-path:url(#SVGID_00000124141886059531082070000005036501804551730048_);">
			
				<linearGradient id="SVGID_00000025436597741299965280000011030567678051349162_" gradientUnits="userSpaceOnUse" x1="294.7829" y1="52.4592" x2="235.4077" y2="-105.3095">
				<stop  offset="0" style="stop-color:#00C5FD"/>
				<stop  offset="1" style="stop-color:#006FFC"/>
			</linearGradient>
			<path style="fill:url(#SVGID_00000025436597741299965280000011030567678051349162_);" d="M183.237,52.92
				c9.519-5.688,20.684-8.036,31.734-8.977c27.813-2.37,55.557,3.592,83.192,7.526c27.636,3.934,56.69,5.698,82.656-4.549
				c25.966-10.246,47.84-35.48,45.999-63.334c-1.166-17.641-11.608-33.803-25.498-44.741
				c-13.891-10.938-30.957-17.154-48.203-21.046C299.29-94.348,240.843-84.549,193.923-55.51
				c-19.296,11.943-36.946,27.324-48.373,46.93c-11.427,19.606-16.092,43.8-9.375,65.476c2.631,8.489,12.552,27.321,24.378,22.616
				C169.211,76.068,173.681,58.63,183.237,52.92z"/>
			
				<linearGradient id="SVGID_00000106827824176544373930000011378470586773765504_" gradientUnits="userSpaceOnUse" x1="166.7097" y1="137.3071" x2="53.5576" y2="-163.3546">
				<stop  offset="0" style="stop-color:#00C5FD"/>
				<stop  offset="1" style="stop-color:#006FFC"/>
			</linearGradient>
			<path style="fill:url(#SVGID_00000106827824176544373930000011378470586773765504_);" d="M71.439,224.27
				c38.718-13.35,71.954-41.934,90.95-78.218c11.225-21.441,17.503-45.057,26.016-67.711c8.514-22.655,19.866-45.16,38.596-60.485
				c15.909-13.016,35.831-19.82,54.359-28.721c18.528-8.901,36.979-21.267,44.851-40.255c8.154-19.669,2.818-43.341-10.474-59.975
				c-13.292-16.634-33.482-26.749-54.308-31.18c-20.826-4.431-42.409-3.624-63.601-1.56c-47.908,4.668-95.602,15.837-138.627,37.419
				C16.176-84.834-22.07-52.397-46.396-10.861c-23.852,40.726-32.728,89.085-28.221,135.835c2.268,23.527,7.89,46.746,16.705,68.679
				c3.036,7.554,6.296,20.296,12.4,25.904c7.208,6.623,23.703,8.715,32.988,10.495C15.329,235.392,44.605,233.523,71.439,224.27z"/>
			
				<linearGradient id="SVGID_00000111151046082004496810000002919950719397123496_" gradientUnits="userSpaceOnUse" x1="133.7934" y1="61.3607" x2="54.2024" y2="-150.1243">
				<stop  offset="0" style="stop-color:#00C5FD"/>
				<stop  offset="1" style="stop-color:#006FFC"/>
			</linearGradient>
			<path style="fill:url(#SVGID_00000111151046082004496810000002919950719397123496_);" d="M34.792,75.019
				C63.235,59.57,96.007,54.328,128.196,50.93s64.863-5.258,95.795-14.792s60.646-27.96,75.93-56.492
				c15.284-28.533,12.236-68.056-12.597-88.818c-14.717-12.304-34.404-16.612-53.391-19.345
				c-53.662-7.723-109.396-5.851-160.72,11.617C21.891-99.432-24.753-65.502-52.058-18.665
				c-27.305,46.837-33.446,106.85-10.793,156.106c5.536,12.037,15.962,26.108,31.278,22.037c10.8-2.871,11.153-11.429,13.613-20.876
				C-10.689,110.672,9.691,88.652,34.792,75.019z"/>
		</g>
		<g style="clip-path:url(#SVGID_00000124141886059531082070000005036501804551730048_);">
			
				<linearGradient id="SVGID_00000086660457777998763220000010048744936589498276_" gradientUnits="userSpaceOnUse" x1="602.9086" y1="344.8084" x2="805.909" y2="628.8085">
				<stop  offset="0" style="stop-color:#00C5FD"/>
				<stop  offset="1" style="stop-color:#006FFC"/>
			</linearGradient>
			<path style="fill:url(#SVGID_00000086660457777998763220000010048744936589498276_);" d="M512.893,465.112
				c25.49-18.113,55.788-27.851,84.647-39.891c28.859-12.04,57.818-27.575,75.613-53.288c15.011-21.69,20.513-48.322,29.563-73.099
				c9.049-24.777,23.937-50.003,48.666-59.185c28.496-10.581,61.033,4.116,82.023,26.103
				c38.404,40.227,47.772,103.016,30.636,155.926c-17.136,52.909-57.725,96.07-105.398,124.71
				c-47.673,28.641-102.189,43.975-156.873,54.107c-28.327,5.249-58.112,9.098-85.492,0.138
				c-25.258-8.266-52.96-33.613-49.258-62.548C470.833,508.269,488.753,482.266,512.893,465.112z"/>
			
				<linearGradient id="SVGID_00000116953904550669366310000013616115257428172682_" gradientUnits="userSpaceOnUse" x1="612.2893" y1="426.8367" x2="726.2894" y2="665.8363">
				<stop  offset="0" style="stop-color:#00C5FD"/>
				<stop  offset="0.1535" style="stop-color:#00B8FD"/>
				<stop  offset="1" style="stop-color:#006FFC"/>
			</linearGradient>
			<path style="fill:url(#SVGID_00000116953904550669366310000013616115257428172682_);" d="M485.388,458.107
				c36.868-5.646,74.403,0.278,111.697,0.791c37.294,0.514,77.195-5.551,104.884-30.539c14.726-13.289,24.756-30.837,36.128-47.089
				c11.372-16.252,25.14-32.053,43.724-38.987c29.399-10.968,64.623,4.91,80.602,31.916c15.979,27.005,14.546,61.963,1.571,90.534
				c-12.975,28.571-36.193,51.402-61.787,69.557c-46.955,33.306-102.876,52.664-159.808,61.196
				c-46.105,6.909-92.968,6.956-139.555,5.208c-18.583-0.697-37.363-1.712-55.191-6.998c-17.828-5.286-34.857-15.291-45.223-30.729
				C366.32,509.189,440.5,464.98,485.388,458.107z"/>
		</g>
	</g>
	<g>
		<defs>
			<rect id="SVGID_00000169539846317811159710000008020385882580210048_" width="750" height="500"/>
		</defs>
		<clipPath id="SVGID_00000005970687561897372940000006189943787149218462_">
			<use xlink:href="#SVGID_00000169539846317811159710000008020385882580210048_"  style="overflow:visible;"/>
		</clipPath>
		<g style="clip-path:url(#SVGID_00000005970687561897372940000006189943787149218462_);">
			<path style="fill:none;stroke:#FFFFFF;stroke-miterlimit:10;" d="M357.723-37.062c0.284,33.913-25.573,62.544-53.752,81.417
				c-34.224,22.922-74.299,37.029-115.335,40.601c-27.934,2.431-56.036,0.064-84.075-0.089c-28.039-0.153-56.701,2.055-82.496,13.05
				c-25.794,10.995-48.534,32.022-55.71,59.128"/>
			<path style="fill:none;stroke:#FFFFFF;stroke-miterlimit:10;" d="M-42.338,42.212c40.604,11.315,85.41,6.763,122.909-12.487
				c37.499-19.25,67.313-53.005,81.785-92.594"/>
			<path style="fill:none;stroke:#FFFFFF;stroke-miterlimit:10;" d="M814.029,202.95c-8.094-12.284-24.197-17.548-38.807-15.826
				s-27.889,9.366-39.542,18.345c-42.333,32.62-66.923,82.462-92.896,129.168s-57.407,94.384-106.113,116.382
				c-19.99,9.029-41.77,13.15-63.016,18.601c-21.246,5.451-42.684,12.583-59.661,26.472c-16.977,13.889-28.807,35.834-25.377,57.499
				"/>
			<path style="fill:none;stroke:#FFFFFF;stroke-miterlimit:10;" d="M813.876,312.711c-10.337-5.648-23.186-5.169-34.267-1.174
				c-11.081,3.995-20.71,11.16-29.834,18.609c-20.92,17.08-40.972,37.526-47.98,63.608c-6.259,23.295-0.755,49.44,14.365,68.234
				c15.121,18.794,39.48,29.769,63.575,28.642"/>
		</g>
	</g>
	<g>
		<defs>
			<rect id="SVGID_00000114759885503854756100000017355311897960716932_" width="750" height="500"/>
		</defs>
		<clipPath id="SVGID_00000110448469914464704670000013388283910671828901_">
			<use xlink:href="#SVGID_00000114759885503854756100000017355311897960716932_"  style="overflow:visible;"/>
		</clipPath>
		<g style="clip-path:url(#SVGID_00000110448469914464704670000013388283910671828901_);">
			<line style="fill:none;stroke:#FFFFFF;stroke-miterlimit:10;" x1="202" y1="22" x2="228" y2="-4"/>
			<line style="fill:none;stroke:#FFFFFF;stroke-miterlimit:10;" x1="108.021" y1="59.305" x2="118.403" y2="48.923"/>
			<line style="fill:none;stroke:#FFFFFF;stroke-miterlimit:10;" x1="67" y1="153" x2="-11" y2="231"/>
			<line style="fill:none;stroke:#FFFFFF;stroke-miterlimit:10;" x1="28" y1="282" x2="39" y2="271"/>
			<line style="fill:none;stroke:#FFFFFF;stroke-miterlimit:10;" x1="119" y1="383" x2="99.5" y2="402.5"/>
			<line style="fill:none;stroke:#FFFFFF;stroke-miterlimit:10;" x1="16" y1="471" x2="-23" y2="510"/>
			<line style="fill:none;stroke:#FFFFFF;stroke-miterlimit:10;" x1="338" y1="514" x2="369.5" y2="482.5"/>
			<line style="fill:none;stroke:#FFFFFF;stroke-miterlimit:10;" x1="692" y1="104" x2="747.5" y2="48.5"/>
			<line style="fill:none;stroke:#FFFFFF;stroke-miterlimit:10;" x1="730" y1="15" x2="739" y2="6"/>
			<line style="fill:none;stroke:#FFFFFF;stroke-miterlimit:10;" x1="406" y1="20" x2="451.5" y2="-25.5"/>
			<line style="fill:none;stroke:#FFFFFF;stroke-miterlimit:10;" x1="619" y1="335" x2="639.5" y2="314.5"/>
			<line style="fill:none;stroke:#FFFFFF;stroke-miterlimit:10;" x1="719.75" y1="315" x2="759.625" y2="275.125"/>
			<line style="fill:none;stroke:#FFFFFF;stroke-miterlimit:10;" x1="638" y1="451" x2="553.5" y2="535.5"/>
			<line style="fill:none;stroke:#FFFFFF;stroke-miterlimit:10;" x1="734.5" y1="435" x2="754.75" y2="414.75"/>
			<line style="fill:none;stroke:#FFFFFF;stroke-miterlimit:10;" x1="689" y1="498.25" x2="656.125" y2="531.125"/>
			<line style="fill:none;stroke:#FFFFFF;stroke-miterlimit:10;" x1="336" y1="54.114" x2="347.057" y2="43.057"/>
			<line style="fill:none;stroke:#FFFFFF;stroke-miterlimit:10;" x1="527" y1="409" x2="505.5" y2="430.5"/>
			<line style="fill:none;stroke:#FFFFFF;stroke-miterlimit:10;" x1="229" y1="95.663" x2="199.831" y2="124.831"/>
		</g>
	</g>
	<g>
		<path style="fill:none;stroke:#FFFFFF;stroke-miterlimit:10;" d="M57.282,440.346c0,1.235-1.001,2.236-2.236,2.236
			c-1.235,0-2.236-1.001-2.236-2.236c0-1.235,1.001-2.236,2.236-2.236C56.281,438.111,57.282,439.112,57.282,440.346z"/>
		<path style="fill:none;stroke:#FFFFFF;stroke-miterlimit:10;" d="M80.345,440.346c0,1.235-1.001,2.236-2.236,2.236
			c-1.235,0-2.236-1.001-2.236-2.236c0-1.235,1.001-2.236,2.236-2.236C79.344,438.111,80.345,439.112,80.345,440.346z"/>
		<path style="fill:none;stroke:#FFFFFF;stroke-miterlimit:10;" d="M103.408,440.346c0,1.235-1.001,2.236-2.236,2.236
			c-1.235,0-2.236-1.001-2.236-2.236c0-1.235,1.001-2.236,2.236-2.236C102.407,438.111,103.408,439.112,103.408,440.346z"/>
		<path style="fill:none;stroke:#FFFFFF;stroke-miterlimit:10;" d="M126.471,440.346c0,1.235-1.001,2.236-2.236,2.236
			c-1.235,0-2.236-1.001-2.236-2.236c0-1.235,1.001-2.236,2.236-2.236C125.47,438.111,126.471,439.112,126.471,440.346z"/>
		<path style="fill:none;stroke:#FFFFFF;stroke-miterlimit:10;" d="M149.535,440.346c0,1.235-1.001,2.236-2.236,2.236
			s-2.236-1.001-2.236-2.236c0-1.235,1.001-2.236,2.236-2.236S149.535,439.112,149.535,440.346z"/>
		<path style="fill:none;stroke:#FFFFFF;stroke-miterlimit:10;" d="M57.282,457.173c0,1.235-1.001,2.236-2.236,2.236
			c-1.235,0-2.236-1.001-2.236-2.236c0-1.235,1.001-2.236,2.236-2.236C56.281,454.938,57.282,455.939,57.282,457.173z"/>
		<path style="fill:none;stroke:#FFFFFF;stroke-miterlimit:10;" d="M80.345,457.173c0,1.235-1.001,2.236-2.236,2.236
			c-1.235,0-2.236-1.001-2.236-2.236c0-1.235,1.001-2.236,2.236-2.236C79.344,454.938,80.345,455.939,80.345,457.173z"/>
		<path style="fill:none;stroke:#FFFFFF;stroke-miterlimit:10;" d="M103.408,457.173c0,1.235-1.001,2.236-2.236,2.236
			c-1.235,0-2.236-1.001-2.236-2.236c0-1.235,1.001-2.236,2.236-2.236C102.407,454.938,103.408,455.939,103.408,457.173z"/>
		<path style="fill:none;stroke:#FFFFFF;stroke-miterlimit:10;" d="M126.471,457.173c0,1.235-1.001,2.236-2.236,2.236
			c-1.235,0-2.236-1.001-2.236-2.236c0-1.235,1.001-2.236,2.236-2.236C125.47,454.938,126.471,455.939,126.471,457.173z"/>
		<path style="fill:none;stroke:#FFFFFF;stroke-miterlimit:10;" d="M149.535,457.173c0,1.235-1.001,2.236-2.236,2.236
			s-2.236-1.001-2.236-2.236c0-1.235,1.001-2.236,2.236-2.236S149.535,455.939,149.535,457.173z"/>
		<circle style="fill:none;stroke:#FFFFFF;stroke-miterlimit:10;" cx="55.046" cy="474" r="2.236"/>
		<circle style="fill:none;stroke:#FFFFFF;stroke-miterlimit:10;" cx="78.109" cy="474" r="2.236"/>
		<path style="fill:none;stroke:#FFFFFF;stroke-miterlimit:10;" d="M103.408,474c0,1.235-1.001,2.236-2.236,2.236
			c-1.235,0-2.236-1.001-2.236-2.236s1.001-2.236,2.236-2.236C102.407,471.764,103.408,472.765,103.408,474z"/>
		<path style="fill:none;stroke:#FFFFFF;stroke-miterlimit:10;" d="M126.471,474c0,1.235-1.001,2.236-2.236,2.236
			c-1.235,0-2.236-1.001-2.236-2.236s1.001-2.236,2.236-2.236C125.47,471.764,126.471,472.765,126.471,474z"/>
		<circle style="fill:none;stroke:#FFFFFF;stroke-miterlimit:10;" cx="147.299" cy="474" r="2.236"/>
	</g>
	<g>
		<circle style="fill:none;stroke:#FFFFFF;stroke-miterlimit:10;" cx="590.886" cy="27.01" r="2.236"/>
		<path style="fill:none;stroke:#FFFFFF;stroke-miterlimit:10;" d="M616.185,27.01c0,1.235-1.001,2.236-2.236,2.236
			c-1.235,0-2.236-1.001-2.236-2.236c0-1.235,1.001-2.236,2.236-2.236C615.184,24.774,616.185,25.775,616.185,27.01z"/>
		<circle style="fill:none;stroke:#FFFFFF;stroke-miterlimit:10;" cx="637.013" cy="27.01" r="2.236"/>
		<circle style="fill:none;stroke:#FFFFFF;stroke-miterlimit:10;" cx="660.076" cy="27.01" r="2.236"/>
		<path style="fill:none;stroke:#FFFFFF;stroke-miterlimit:10;" d="M685.375,27.01c0,1.235-1.001,2.236-2.236,2.236
			c-1.235,0-2.236-1.001-2.236-2.236c0-1.235,1.001-2.236,2.236-2.236C684.374,24.774,685.375,25.775,685.375,27.01z"/>
		<circle style="fill:none;stroke:#FFFFFF;stroke-miterlimit:10;" cx="590.886" cy="43.837" r="2.236"/>
		<path style="fill:none;stroke:#FFFFFF;stroke-miterlimit:10;" d="M616.185,43.837c0,1.235-1.001,2.236-2.236,2.236
			c-1.235,0-2.236-1.001-2.236-2.236c0-1.235,1.001-2.236,2.236-2.236C615.184,41.601,616.185,42.602,616.185,43.837z"/>
		<circle style="fill:none;stroke:#FFFFFF;stroke-miterlimit:10;" cx="637.013" cy="43.837" r="2.236"/>
		<circle style="fill:none;stroke:#FFFFFF;stroke-miterlimit:10;" cx="660.076" cy="43.837" r="2.236"/>
		<path style="fill:none;stroke:#FFFFFF;stroke-miterlimit:10;" d="M685.375,43.837c0,1.235-1.001,2.236-2.236,2.236
			c-1.235,0-2.236-1.001-2.236-2.236c0-1.235,1.001-2.236,2.236-2.236C684.374,41.601,685.375,42.602,685.375,43.837z"/>
		<path style="fill:none;stroke:#FFFFFF;stroke-miterlimit:10;" d="M593.122,60.663c0,1.235-1.001,2.236-2.236,2.236
			c-1.235,0-2.236-1.001-2.236-2.236c0-1.235,1.001-2.236,2.236-2.236C592.121,58.428,593.122,59.429,593.122,60.663z"/>
		<path style="fill:none;stroke:#FFFFFF;stroke-miterlimit:10;" d="M616.185,60.663c0,1.235-1.001,2.236-2.236,2.236
			c-1.235,0-2.236-1.001-2.236-2.236c0-1.235,1.001-2.236,2.236-2.236C615.184,58.428,616.185,59.429,616.185,60.663z"/>
		<path style="fill:none;stroke:#FFFFFF;stroke-miterlimit:10;" d="M639.249,60.663c0,1.235-1.001,2.236-2.236,2.236
			c-1.235,0-2.236-1.001-2.236-2.236c0-1.235,1.001-2.236,2.236-2.236C638.248,58.428,639.249,59.429,639.249,60.663z"/>
		<path style="fill:none;stroke:#FFFFFF;stroke-miterlimit:10;" d="M662.312,60.663c0,1.235-1.001,2.236-2.236,2.236
			s-2.236-1.001-2.236-2.236c0-1.235,1.001-2.236,2.236-2.236S662.312,59.429,662.312,60.663z"/>
		<path style="fill:none;stroke:#FFFFFF;stroke-miterlimit:10;" d="M685.375,60.663c0,1.235-1.001,2.236-2.236,2.236
			c-1.235,0-2.236-1.001-2.236-2.236c0-1.235,1.001-2.236,2.236-2.236C684.374,58.428,685.375,59.429,685.375,60.663z"/>
	</g>
	<g>
		<defs>
			<rect id="SVGID_00000057858006251802623940000017224621342031751056_" width="750" height="500"/>
		</defs>
		<clipPath id="SVGID_00000049924885070300475910000015190695454840364455_">
			<use xlink:href="#SVGID_00000057858006251802623940000017224621342031751056_"  style="overflow:visible;"/>
		</clipPath>
		<g style="clip-path:url(#SVGID_00000049924885070300475910000015190695454840364455_);">
			<circle style="fill:none;stroke:#FFFFFF;stroke-miterlimit:10;" cx="175.125" cy="41.625" r="8.125"/>
			<circle style="fill:none;stroke:#FFFFFF;stroke-miterlimit:10;" cx="120.375" cy="127.375" r="4.375"/>
			<circle style="fill:none;stroke:#FFFFFF;stroke-miterlimit:10;" cx="52.25" cy="222.25" r="5.25"/>
			<circle style="fill:none;stroke:#FFFFFF;stroke-miterlimit:10;" cx="200.5" cy="452" r="4"/>
			<circle style="fill:none;stroke:#FFFFFF;stroke-miterlimit:10;" cx="44.25" cy="367.5" r="8"/>
			<circle style="fill:none;stroke:#FFFFFF;stroke-miterlimit:10;" cx="589" cy="465.5" r="4.5"/>
			<circle style="fill:none;stroke:#FFFFFF;stroke-miterlimit:10;" cx="664.25" cy="380.25" r="7.25"/>
			<circle style="fill:none;stroke:#FFFFFF;stroke-miterlimit:10;" cx="683.5" cy="456.5" r="4.5"/>
			<circle style="fill:none;stroke:#FFFFFF;stroke-miterlimit:10;" cx="713.75" cy="164.25" r="18.75"/>
			<circle style="fill:none;stroke:#FFFFFF;stroke-miterlimit:10;" cx="731.375" cy="272.875" r="2.875"/>
			<circle style="fill:none;stroke:#FFFFFF;stroke-miterlimit:10;" cx="454.25" cy="30.25" r="4.25"/>
			<circle style="fill:none;stroke:#FFFFFF;stroke-miterlimit:10;" cx="272.063" cy="26.813" r="3.438"/>
			<circle style="fill:none;stroke:#FFFFFF;stroke-miterlimit:10;" cx="529.5" cy="-0.5" r="19.5"/>
			<circle style="fill:none;stroke:#FFFFFF;stroke-miterlimit:10;" cx="273" cy="499" r="29"/>
			<circle style="fill:none;stroke:#FFFFFF;stroke-miterlimit:10;" cx="15.5" cy="11.5" r="7.5"/>
			<circle style="fill:none;stroke:#FFFFFF;stroke-miterlimit:10;" cx="17.625" cy="138.375" r="6.625"/>
		</g>
	</g>
</g>
</svg>
